<?xml version="1.0" standalone="no"?>
<!DOCTYPE svg PUBLIC "-//W3C//DTD SVG 20010904//EN"
 "http://www.w3.org/TR/2001/REC-SVG-20010904/DTD/svg10.dtd">
<svg version="1.0" xmlns="http://www.w3.org/2000/svg"
 width="96.000000pt" height="96.000000pt" viewBox="0 0 96.000000 96.000000"
 preserveAspectRatio="xMidYMid meet">
<metadata>
Created by potrace 1.11, written by Peter Selinger 2001-2013
</metadata>
<g transform="translate(0.000000,96.000000) scale(0.100000,-0.100000)"
fill="#000000" stroke="none">
<path d="M406 867 c-27 -29 -37 -33 -67 -29 -47 5 -91 -18 -119 -64 -18 -29
-22 -45 -17 -84 4 -36 2 -52 -9 -61 -12 -10 -14 -26 -9 -78 4 -36 8 -73 10
-81 2 -8 7 -35 10 -60 3 -25 8 -63 12 -85 3 -22 7 -51 8 -65 12 -102 18 -146
22 -152 6 -10 460 -10 466 0 3 4 8 34 12 67 7 70 10 94 25 195 28 200 32 247
21 254 -6 4 -6 17 1 36 22 64 -19 141 -81 155 -16 3 -33 16 -39 30 -13 29 -52
41 -81 25 -18 -9 -26 -7 -48 9 -39 32 -80 27 -117 -12z"/>
</g>
</svg>
